#!OML:ASF F:\VICON\USERDATA\INSTALL\rory3\rory3.ASF
:FULLY-SPECIFIED
:DEGREES
292
root -0.773879 18.051 -9.42223 4.25973 1.07573 -7.67523
lowerback 6.04978 2.38113 2.84238
upperback -0.527246 3.57998 4.73097
thorax -4.07488 1.77195 2.97185
lowerneck -15.7276 -5.87963 -15.1773
upperneck 28.1029 -6.32063 7.60058
head 12.7451 -3.46728 4.51136
rclavicle 3.4837e-014 3.18055e-014
rhumerus -28.6046 -11.6156 -72.2762
rradius 37.2107
rwrist -17.8609
rhand -13.1871 18.5467
rfingers 7.12502
rthumb 12.9129 -11.0338
lclavicle 3.4837e-014 3.18055e-014
lhumerus -38.0246 8.09154 83.8828
lradius 34.7154
lwrist -5.97942
lhand 1.09959 30.8543
lfingers 7.12502
lthumb 26.6432 58.9995
rfemur 3.49308 5.84489 32.7303
rtibia 15.7909
rfoot -16.3042 -10.0787
rtoes 17.3401
lfemur -35.0902 -2.80824 -9.63195
ltibia 28.5606
lfoot -8.74419 5.43027
ltoes -8.02702
293
root -0.771386 18.0347 -9.2668 4.32514 0.905593 -7.86643
lowerback 6.06041 2.42756 2.89622
upperback -0.505512 3.64789 4.7944
thorax -4.06168 1.80538 3.00141
lowerneck -15.9938 -5.87926 -15.0783
upperneck 28.2405 -6.26487 7.45369
head 12.8402 -3.44832 4.44614
rclavicle 1.3418e-014 -2.22639e-014
rhumerus -28.253 -11.3083 -72.3642
rradius 37.4971
rwrist -18.084
rhand -13.226 18.1962
rfingers 7.12502
rthumb 12.8753 -11.3866
lclavicle 1.3418e-014 -2.22639e-014
lhumerus -38.054 8.16772 83.9202
lradius 34.8975
lwrist -6.01863
lhand 1.05694 30.7679
lfingers 7.12502
lthumb 26.6023 58.9193
rfemur 4.59897 5.98744 32.9916
rtibia 14.6247
rfoot -16.0218 -10.1064
rtoes 16.7792
lfemur -35.1314 -3.31279 -8.96523
ltibia 26.7965
lfoot -9.49075 5.13054
ltoes -8.89985
294
root -0.763545 18.0228 -9.10851 4.44519 0.722708 -7.74626
lowerback 5.83461 2.51196 2.71826
upperback -0.411214 3.72656 4.74535
thorax -3.84651 1.84929 3.05337
lowerneck -16.031 -5.8815 -15.0435
upperneck 28.1999 -6.26838 7.44847
head 12.8299 -3.44484 4.43592
rclavicle 2.52953e-014 -9.54166e-015
rhumerus -27.9031 -11.1516 -72.4482
rradius 37.8883
rwrist -18.2471
rhand -13.2041 17.7564
rfingers 7.12502
rthumb 12.8964 -11.8251
lclavicle 2.52953e-014 -9.54166e-015
lhumerus -38.0697 8.03681 84.0492
lradius 35.2838
lwrist -5.85699
lhand 1.28261 31.4612
lfingers 7.12502
lthumb 26.8183 59.5796
rfemur 5.60006 5.99396 32.8455
rtibia 13.5769
rfoot -15.6752 -9.93273
rtoes 16.643
lfemur -35.2582 -3.85705 -8.65604
ltibia 25.2393
lfoot -10.3196 4.90485
ltoes -7.75605
295
root -0.749535 18.0156 -8.94506 4.55131 0.495541 -7.62025
lowerback 5.74238 2.60974 2.60453
upperback -0.474804 3.845 4.67752
thorax -3.86747 1.90989 3.03806
lowerneck -15.7193 -5.88406 -15.1965
upperneck 28.1781 -6.31485 7.57011
head 12.7736 -3.47218 4.50586
rclavicle -3.7123e-014 1.59028e-015
rhumerus -27.7302 -11.0007 -72.4599
rradius 38.0291
rwrist -18.2294
rhand -13.3759 17.7388
rfingers 7.12502
rthumb 12.7308 -11.8531
lclavicle -3.7123e-014 1.59028e-015
lhumerus -38.3566 7.90048 84.1145
lradius 35.4469
lwrist -5.86143
lhand 1.36318 32.0556
lfingers 7.12502
lthumb 26.8954 60.1621
rfemur 6.54942 5.84039 32.6303
rtibia 12.7042
rfoot -15.2258 -9.64843
rtoes 15.2505
lfemur -35.4204 -4.52981 -8.28795
ltibia 23.9156
lfoot -11.4407 4.99547
ltoes -6.53613
296
root -0.728024 18.0065 -8.77876 4.70713 0.383637 -7.35522
lowerback 5.52219 2.66103 2.44136
upperback -0.483224 3.88601 4.56205
thorax -3.75583 1.93317 3.01496
lowerneck -15.8276 -5.8906 -15.251
upperneck 28.3301 -6.29946 7.58264
head 12.8597 -3.47117 4.52615
rclavicle -1.28216e-014 -1.35174e-014
rhumerus -27.2903 -10.9459 -72.4709
rradius 37.8566
rwrist -18.1065
rhand -13.5715 18.049
rfingers 7.12502
rthumb 12.5423 -11.5545
lclavicle -1.28216e-014 -1.35174e-014
lhumerus -38.3428 8.05455 84.0908
lradius 35.178
lwrist -6.1305
lhand 1.19999 31.5781
lfingers 7.12502
lthumb 26.7392 59.7086
rfemur 7.32359 5.23963 32.1468
rtibia 12.0497
rfoot -15.0654 -9.09455
rtoes 13.4826
lfemur -35.615 -5.13538 -8.20424
ltibia 22.7635
lfoot -12.7625 5.29198
ltoes -8.71338
297
root -0.732809 17.9832 -8.60599 4.6645 0.00573945 -7.68307
lowerback 5.37801 2.78058 2.54264
upperback -0.360168 4.04085 4.66186
thorax -3.55328 2.01034 3.05835
lowerneck -16.0894 -5.86355 -15.149
upperneck 28.4963 -6.23016 7.50892
head 12.966 -3.43772 4.49328
rclavicle 8.39865e-015 1.19271e-014
rhumerus -26.9154 -10.8078 -72.5668
rradius 37.9156
rwrist -18.1394
rhand -13.5561 18.1988
rfingers 7.12502
rthumb 12.5571 -11.4038
lclavicle 8.39865e-015 1.19271e-014
lhumerus -38.1288 8.19215 84.0395
lradius 34.7829
lwrist -6.2349
lhand 1.15573 31.4337
lfingers 7.12502
lthumb 26.6969 59.5707
rfemur 8.30935 5.56166 32.6294
rtibia 11.4324
rfoot -14.9333 -9.1793
rtoes 13.5302
lfemur -35.6276 -5.38112 -7.36132
ltibia 21.9956
lfoot -13.7622 5.68411
ltoes -10.2582
